{"title":"HomeMade.-.Young.Girl.Awesome.Blowjob","uid":6647865,"size":171765304,"categoryP":"porn","categoryS":"movie_clips","magnet":"?xt=urn:btih:c9fb0f878913c469e914be1412249473787b33be&amp;dn=HomeMade.-.Young.Girl.Awesome.Blowjob&amp;tr=udp%3A%2F%2Ftracker.openbittorrent.com%3A80&amp;tr=udp%3A%2F%2Fopen.demonii.com%3A1337&amp;tr=udp%3A%2F%2Ftracker.coppersurfer.tk%3A6969&amp;tr=udp%3A%2F%2Fexodus.desync.com%3A6969","seeders":0,"leechers":0,"uploader":"stu181","files":1,"time":1315014761,"description":"Format : AVI\nFormat/Info : Audio Video Interleave\nFile size : 164 MiB\nDuration : 13mn 41s\nOverall bit rate : 1 672 Kbps\n\nVideo\nID : 0\nFormat : MPEG-4 Visual\nFormat profile : Advanced Simple@L5\nFormat settings, BVOP : No\nFormat settings, QPel : No\nFormat settings, GMC : No warppoints\nFormat settings, Matrix : Default (MPEG)\nCodec ID : XVID\nCodec ID/Hint : XviD\nDuration : 13mn 41s\nBit rate : 1 473 Kbps\nWidth : 640 pixels\nHeight : 480 pixels\nDisplay aspect ratio : 4:3\nFrame rate : 25.000 fps\nColor space : YUV\nChroma subsampling : 4:2:0\nBit depth : 8 bits\nScan type : Progressive\nCompression mode : Lossy\nBits/(Pixel*Frame) : 0.192\nStream size : 144 MiB (88%)\nWriting library : XviD 1.2.1 (UTC 2008-12-04)\n\nAudio\nID : 1\nFormat : MPEG Audio\nFormat version : Version 1\nFormat profile : Layer 3\nCodec ID : 55\nCodec ID/Hint : MP3\nDuration : 13mn 41s\nBit rate mode : Constant\nBit rate : 192 Kbps\nChannel(s) : 2 channels\nSampling rate : 44.1 KHz\nCompression mode : Lossy\nStream size : 18.8 MiB (11%)\nAlignment : Split accross interleaves\nInterleave, duration : 80 ms (2.00 video frames)\nWriting library : LAMELAME_MAJOR_VERSI","torrent":{"xt":"urn:btih:c9fb0f878913c469e914be1412249473787b33be","amp;dn":"HomeMade.-.Young.Girl.Awesome.Blowjob","amp;tr":["udp%3A%2F%2Ftracker.openbittorrent.com%3A80","udp%3A%2F%2Fopen.demonii.com%3A1337","udp%3A%2F%2Ftracker.coppersurfer.tk%3A6969","udp%3A%2F%2Fexodus.desync.com%3A6969"],"infoHash":"c9fb0f878913c469e914be1412249473787b33be","infoHashBuffer":{"type":"Buffer","data":[201,251,15,135,137,19,196,105,233,20,190,20,18,36,148,115,120,123,51,190]},"announce":[],"urlList":[]}}